<?xml version="1.0" standalone="no"?>
<!DOCTYPE svg PUBLIC "-//W3C//DTD SVG 20010904//EN"
 "http://www.w3.org/TR/2001/REC-SVG-20010904/DTD/svg10.dtd">
<svg version="1.0" xmlns="http://www.w3.org/2000/svg"
 width="2048.000000pt" height="762.000000pt" viewBox="0 0 2048.000000 762.000000"
 preserveAspectRatio="xMidYMid meet">

<g transform="translate(0.000000,762.000000) scale(0.100000,-0.100000)"
fill="#000000" stroke="none">
<path d="M10239 6760 c-104 -18 -211 -101 -258 -200 l-26 -55 0 -1415 0 -1415
26 -56 c35 -75 96 -134 177 -172 l67 -32 315 -3 c343 -4 402 2 483 46 65 35
131 110 157 179 20 55 21 70 20 747 l0 691 -290 3 -290 2 0 -150 0 -150 125 0
125 0 0 -535 0 -535 -280 0 -280 0 0 1380 0 1380 258 -2 257 -3 3 -282 2 -283
174 0 c140 0 175 3 179 14 10 24 7 478 -2 545 -19 125 -94 225 -209 279 l-57
27 -315 2 c-173 1 -336 -2 -361 -7z"/>
<path d="M13474 6756 c-106 -26 -194 -100 -243 -205 l-26 -56 -3 -1379 c-2
-1194 0 -1387 13 -1437 34 -135 133 -228 273 -258 67 -14 589 -15 662 -1 112
21 206 97 258 208 l27 57 3 333 4 332 -181 0 -181 0 0 -320 0 -320 -260 0
-260 0 0 1380 0 1380 258 -2 257 -3 3 -282 2 -283 180 0 180 0 0 265 c0 273
-7 339 -42 409 -33 64 -103 131 -171 162 l-62 29 -320 2 c-232 1 -334 -1 -371
-11z"/>
<path d="M11760 6655 l0 -104 418 -3 c229 -2 425 -1 435 1 15 3 17 16 17 107
l0 104 -435 0 -435 0 0 -105z"/>
<path d="M17120 6655 l0 -105 403 -1 c221 -1 414 -2 429 -3 34 -2 35 0 37 99
3 128 53 115 -440 115 l-429 0 0 -105z"/>
<path d="M15470 6733 c0 -7 36 -129 120 -403 38 -123 305 -1001 336 -1104 13
-44 24 -86 24 -94 0 -8 -59 -207 -131 -441 -73 -234 -137 -446 -144 -471 -7
-25 -63 -207 -124 -405 -61 -198 -111 -363 -111 -367 0 -5 76 -8 170 -8 l169
0 17 58 c68 239 325 1116 328 1119 5 5 18 -41 166 -557 155 -542 170 -592 182
-607 8 -10 55 -13 175 -13 l164 0 -7 23 c-10 30 -217 710 -319 1047 -46 151
-102 333 -123 404 l-40 128 90 292 c49 160 118 386 153 501 48 161 181 594
271 886 4 15 -12 17 -167 15 l-172 -1 -170 -582 c-94 -321 -173 -583 -176
-583 -3 0 -34 96 -68 213 -34 116 -94 322 -134 457 -39 135 -88 301 -108 370
l-37 125 -167 3 c-92 2 -167 -1 -167 -5z"/>
<path d="M18400 5090 l0 -1650 178 2 177 3 5 525 5 525 260 0 c246 1 263 2
317 23 75 30 146 96 189 174 l34 63 3 834 c2 740 1 840 -13 890 -30 102 -94
177 -195 225 l-65 31 -447 3 -448 3 0 -1651z m810 530 l0 -810 -225 0 -225 0
0 810 0 810 225 0 225 0 0 -810z"/>
<path d="M11788 6256 c-108 -45 -184 -117 -212 -204 -14 -42 -16 -189 -14
-1327 l3 -1280 177 -3 178 -2 2 585 3 586 265 0 265 0 3 -586 2 -585 180 0
180 0 0 1288 c0 1464 7 1347 -84 1437 -28 28 -78 64 -111 80 l-60 30 -360 3
c-358 2 -360 2 -417 -22z m652 -861 l0 -505 -187 0 c-104 0 -218 3 -255 7
l-68 6 0 498 0 499 255 0 255 0 0 -505z"/>
<path d="M17056 6233 c-3 -3 -6 -633 -6 -1400 l0 -1393 518 2 517 3 3 151 3
151 -242 6 c-133 4 -287 7 -341 7 l-98 0 2 468 3 467 278 3 277 2 0 135 0 135
-280 0 -280 0 2 473 3 472 338 3 338 2 -3 158 -3 157 -511 2 c-281 1 -514 0
-518 -4z"/>
<path d="M1875 3350 c3 -5 0 -10 -7 -10 -8 0 -21 -9 -31 -20 -9 -11 -27 -20
-39 -20 -20 1 -19 2 7 14 29 12 29 13 7 18 -13 4 -20 2 -16 -4 3 -5 -2 -9 -12
-8 -11 1 -28 2 -39 1 -17 -1 -18 -3 -5 -12 12 -9 11 -10 -7 -6 -13 3 -44 -3
-70 -13 -27 -11 -42 -19 -35 -20 7 0 10 -5 7 -10 -4 -6 -12 -7 -18 -3 -28 17
-107 -2 -89 -23 4 -4 -2 -2 -12 6 -16 12 -18 12 -11 1 6 -11 2 -13 -19 -7 -18
4 -25 3 -21 -4 3 -5 -2 -11 -12 -11 -21 -1 -25 -2 -75 -13 -22 -5 -35 -13 -31
-19 4 -6 -4 -8 -23 -3 l-29 6 25 -16 c25 -15 23 -16 -25 -4 -25 6 -53 -2 -73
-20 -16 -15 -29 -19 -49 -14 -20 4 -12 -4 29 -31 32 -20 62 -33 68 -30 6 4 9
1 8 -7 -2 -8 6 -13 19 -12 12 0 20 -3 17 -7 -2 -4 16 -18 40 -32 31 -17 47
-22 55 -14 6 6 14 7 18 2 5 -4 2 -10 -5 -13 -9 -2 3 -14 30 -29 23 -14 58 -34
76 -44 17 -10 32 -14 32 -9 0 6 -10 15 -22 20 l-23 9 22 0 c13 1 27 -8 33 -19
6 -11 7 -20 3 -20 -4 0 6 -9 22 -20 17 -11 38 -19 47 -16 11 2 15 -1 11 -10
-3 -10 5 -16 26 -20 18 -4 29 -9 26 -12 -3 -4 9 -14 27 -23 24 -12 39 -14 57
-8 13 5 26 8 28 5 3 -2 -5 -7 -16 -11 -12 -3 -19 -11 -16 -16 4 -5 17 -2 30 7
22 15 24 14 22 -4 -1 -13 -6 -18 -17 -15 -9 4 -8 0 5 -10 10 -8 26 -12 34 -9
9 3 12 1 7 -6 -7 -12 5 -16 33 -13 7 2 10 -2 7 -7 -8 -14 42 -33 70 -26 13 3
24 10 24 15 0 6 -8 5 -19 -1 -25 -13 -52 -14 -31 0 8 5 11 12 7 17 -5 4 -12 1
-17 -7 -5 -8 -12 -11 -17 -7 -12 13 20 28 45 22 15 -4 21 -2 17 5 -8 13 -48
13 -62 -1 -8 -8 -13 -7 -18 2 -5 8 -4 10 3 5 18 -11 15 40 -3 57 -13 13 -13
16 0 27 12 10 15 44 15 172 0 104 3 157 10 153 17 -10 11 7 -6 20 -14 10 -15
17 -5 48 7 21 17 35 22 31 6 -3 9 11 7 36 -1 23 -6 44 -12 47 -5 3 -6 1 -2 -5
4 -7 3 -12 -3 -12 -5 0 -13 5 -16 11 -4 6 -21 8 -38 5 -28 -5 -29 -5 -9 4 19
8 23 30 6 30 -3 0 -2 -4 1 -10z m49 -46 c17 -7 22 -44 6 -44 -5 0 -10 9 -10
19 0 11 -6 22 -12 24 -7 3 -10 6 -6 6 3 1 13 -2 22 -5z m-246 -41 c-2 -10 -11
-18 -21 -19 -12 -1 -13 -1 -2 3 18 5 20 19 3 26 -8 3 -5 6 5 6 12 1 17 -5 15
-16z m-78 -27 c0 -2 -9 -6 -20 -9 -11 -3 -18 -1 -14 4 5 9 34 13 34 5z m37
-12 c-3 -3 -12 -4 -19 -1 -8 3 -5 6 6 6 11 1 17 -2 13 -5z m-234 -61 c-7 -2
-21 -2 -30 0 -10 3 -4 5 12 5 17 0 24 -2 18 -5z m154 -199 c-3 -3 -12 -4 -19
-1 -8 3 -5 6 6 6 11 1 17 -2 13 -5z m67 -75 c-3 -6 4 -7 19 -4 14 4 27 3 30
-2 7 -12 -61 -9 -73 3 -6 6 -2 10 10 11 11 1 18 -3 14 -8z m141 -86 c4 -11 0
-11 -18 -2 -31 16 -32 18 -8 16 11 -1 23 -7 26 -14z"/>
<path d="M2009 3251 c0 -3 -2 -14 -4 -23 -6 -31 60 -63 75 -37 5 7 9 5 13 -5
4 -9 2 -16 -3 -16 -6 0 -10 -5 -10 -11 0 -8 4 -8 14 0 7 6 20 9 29 5 8 -3 18
-1 22 5 3 6 0 11 -8 11 -18 0 -52 37 -38 41 6 2 2 10 -10 17 -12 8 -19 10 -17
5 2 -4 -6 -18 -19 -30 -23 -23 -34 -8 -11 15 7 7 8 12 3 12 -6 0 -4 4 4 9 9 6
5 9 -13 9 -14 0 -26 -3 -27 -7z"/>
<path d="M2130 3200 c8 -5 20 -10 25 -10 6 0 3 5 -5 10 -8 5 -19 10 -25 10 -5
0 -3 -5 5 -10z"/>
<path d="M2164 3164 c3 -9 6 -18 6 -20 0 -2 8 -4 18 -4 15 1 15 2 -2 11 -15 9
-16 13 -5 20 11 7 10 9 -5 9 -12 0 -16 -5 -12 -16z"/>
<path d="M2215 3150 c-3 -5 -1 -10 4 -10 6 0 11 5 11 10 0 6 -2 10 -4 10 -3 0
-8 -4 -11 -10z"/>
<path d="M2108 3143 c7 -3 16 -2 19 1 4 3 -2 6 -13 5 -11 0 -14 -3 -6 -6z"/>
<path d="M2254 3136 c11 -9 24 -16 30 -16 12 0 7 5 -24 19 -24 11 -24 11 -6
-3z"/>
<path d="M2240 3110 c0 -8 50 -24 56 -18 2 2 -10 9 -26 15 -17 6 -30 8 -30 3z"/>
<path d="M2347 3079 c7 -7 15 -10 18 -7 3 3 -2 9 -12 12 -14 6 -15 5 -6 -5z"/>
<path d="M2414 3014 c-18 -14 -18 -14 6 -3 31 14 36 19 24 19 -6 0 -19 -7 -30
-16z"/>
<path d="M2424 2995 c-16 -12 -16 -14 -3 -15 9 0 22 7 29 15 16 19 0 19 -26 0z"/>
<path d="M9840 2930 l0 -70 4915 0 4915 0 0 70 0 70 -4915 0 -4915 0 0 -70z"/>
<path d="M2477 2979 c7 -7 15 -10 18 -7 3 3 -2 9 -12 12 -14 6 -15 5 -6 -5z"/>
<path d="M2642 2914 c10 -10 20 -16 22 -13 3 3 -5 11 -17 18 -21 13 -21 12 -5
-5z"/>
<path d="M2057 2696 c-13 -33 -7 -51 20 -63 15 -7 32 -13 39 -13 7 0 15 -6 17
-12 4 -8 6 -7 6 4 1 9 7 19 14 21 15 7 -11 27 -33 26 -11 -1 -10 -3 3 -6 27
-7 20 -22 -10 -19 -14 2 -27 9 -29 17 -1 8 -6 25 -11 38 -8 21 -11 22 -16 7z"/>
<path d="M1970 2666 c0 -2 7 -7 16 -10 8 -3 12 -2 9 4 -6 10 -25 14 -25 6z"/>
<path d="M2010 2650 c0 -5 7 -7 15 -4 8 4 15 8 15 10 0 2 -7 4 -15 4 -8 0 -15
-4 -15 -10z"/>
<path d="M2030 2636 c0 -7 82 -47 87 -43 2 3 -14 14 -37 26 -41 21 -50 24 -50
17z"/>
<path d="M2143 2582 c-9 -6 -7 -11 6 -19 15 -10 19 -9 17 2 -3 20 -10 25 -23
17z"/>
<path d="M2209 2579 c-11 -7 -10 -9 6 -9 16 -1 13 -4 -10 -15 l-30 -14 33 3
c40 3 48 11 30 30 -10 9 -20 11 -29 5z"/>
<path d="M10677 2543 c-4 -3 -7 -277 -7 -609 l0 -602 41 -16 c125 -50 292 -61
397 -25 72 24 149 88 188 156 61 103 86 261 65 416 -21 157 -71 253 -158 304
-41 24 -59 28 -118 28 -93 -1 -158 -30 -225 -101 -28 -30 -52 -54 -53 -54 -1
0 0 115 1 255 l4 255 -64 0 c-36 0 -68 -3 -71 -7z m475 -523 c55 -56 73 -126
72 -280 -1 -181 -40 -276 -134 -322 -54 -27 -170 -30 -235 -6 l-40 15 -3 223
-2 223 26 36 c118 159 231 199 316 111z"/>
<path d="M13460 1915 l0 -635 65 0 65 0 0 241 c0 148 4 238 9 234 6 -3 80 -94
165 -203 85 -108 170 -214 188 -235 l33 -38 89 3 90 3 -115 135 c-189 223
-281 338 -278 348 2 5 86 99 187 208 l184 199 -86 3 -86 3 -53 -58 c-30 -32
-108 -119 -174 -193 -66 -75 -128 -142 -137 -149 -15 -12 -16 18 -16 378 l0
391 -65 0 -65 0 0 -635z"/>
<path d="M2345 2480 c-3 -5 -1 -10 4 -10 6 0 11 5 11 10 0 6 -2 10 -4 10 -3 0
-8 -4 -11 -10z"/>
<path d="M2370 2465 c-14 -8 -20 -14 -14 -15 5 0 19 7 30 15 24 18 16 19 -16
0z"/>
<path d="M15478 2442 l-48 -16 0 -123 0 -123 -115 0 -115 0 0 -65 0 -65 114 0
115 0 3 -297 3 -298 27 -52 c55 -104 137 -138 316 -131 64 3 125 9 135 13 14
6 17 20 17 70 l0 63 -42 -10 c-24 -6 -79 -11 -123 -12 -64 -1 -87 3 -114 19
-80 47 -91 96 -91 406 l0 229 185 0 185 0 0 65 0 65 -185 0 -185 0 0 140 c0
158 5 151 -82 122z"/>
<path d="M2420 2413 c0 -1 10 -7 21 -14 13 -6 19 -7 15 -1 -3 6 0 12 6 15 7 2
1 4 -14 3 -16 0 -28 -2 -28 -3z"/>
<path d="M2505 2390 c3 -5 8 -10 11 -10 2 0 4 5 4 10 0 6 -5 10 -11 10 -5 0
-7 -4 -4 -10z"/>
<path d="M2530 2376 c0 -2 7 -7 16 -10 8 -3 12 -2 9 4 -6 10 -25 14 -25 6z"/>
<path d="M2531 2347 c2 -1 13 -9 24 -17 19 -14 19 -14 6 3 -7 9 -18 17 -24 17
-6 0 -8 -1 -6 -3z"/>
<path d="M2596 2321 c-4 -5 3 -7 14 -4 23 6 26 13 6 13 -8 0 -17 -4 -20 -9z"/>
<path d="M2703 2266 c-9 -11 -9 -15 0 -19 7 -3 14 3 14 14 2 22 2 22 -14 5z"/>
<path d="M11843 2190 c-197 -42 -314 -240 -300 -509 10 -195 76 -320 200 -380
68 -33 167 -46 241 -31 153 30 256 136 301 311 24 92 16 289 -15 378 -50 140
-164 227 -310 236 -41 2 -94 0 -117 -5z m152 -131 c52 -14 117 -82 140 -145
25 -70 31 -243 12 -317 -21 -78 -58 -138 -108 -173 -38 -26 -50 -29 -119 -29
-67 0 -82 4 -118 27 -84 56 -128 181 -119 338 7 140 44 224 120 276 52 35 119
43 192 23z"/>
<path d="M12755 2187 c-71 -19 -111 -42 -165 -96 -92 -92 -136 -233 -127 -407
12 -211 94 -348 238 -397 150 -51 300 -18 400 90 85 91 119 196 119 366 0 222
-68 356 -215 423 -64 30 -179 39 -250 21z m158 -128 c53 -14 110 -69 138 -132
18 -41 23 -76 27 -168 7 -174 -30 -277 -120 -336 -36 -24 -52 -28 -112 -28
-91 1 -145 27 -186 92 -70 110 -79 321 -18 449 50 108 155 156 271 123z"/>
<path d="M14627 2190 c-61 -11 -123 -41 -166 -82 -92 -86 -96 -236 -8 -326 45
-46 94 -72 229 -121 143 -52 178 -81 178 -149 0 -53 -35 -94 -96 -111 -60 -17
-179 -13 -284 9 -52 11 -96 20 -98 20 -2 0 -2 -30 0 -67 l3 -68 55 -13 c30 -7
111 -13 180 -15 108 -2 134 1 191 21 121 42 189 126 189 233 0 83 -15 122 -64
167 -53 49 -70 58 -219 112 -148 53 -187 85 -187 152 0 51 30 87 89 107 47 15
154 14 248 -4 43 -8 79 -15 81 -15 1 0 2 29 2 64 0 74 5 70 -105 86 -80 11
-149 11 -218 0z"/>
<path d="M16430 2184 c-132 -35 -232 -148 -271 -304 -19 -79 -17 -261 5 -335
49 -164 136 -248 288 -276 196 -36 366 76 430 286 26 84 30 258 9 345 -38 154
-125 251 -256 285 -73 18 -133 18 -205 -1z m213 -147 c153 -90 167 -468 22
-596 -108 -95 -280 -52 -344 85 -68 143 -40 393 53 483 69 67 182 79 269 28z"/>
<path d="M17480 2179 c-37 -15 -76 -43 -124 -91 -39 -37 -72 -68 -73 -68 -2 0
-3 36 -3 80 l0 80 -65 0 -65 0 0 -450 0 -450 70 0 70 0 0 291 0 290 55 68
c111 138 218 176 288 103 32 -34 47 -79 47 -144 l0 -48 71 0 72 0 -6 83 c-12
172 -85 260 -224 272 -45 4 -71 0 -113 -16z"/>
<path d="M18285 2187 c-117 -39 -192 -116 -245 -252 -21 -53 -24 -77 -25 -210
0 -171 13 -231 68 -311 74 -107 168 -148 337 -148 64 0 135 7 182 17 l76 18 4
50 c1 28 0 55 -3 60 -3 6 -40 4 -94 -6 -179 -31 -287 -14 -359 58 -44 45 -76
121 -76 183 l0 34 288 2 287 3 3 70 c9 195 -68 349 -203 411 -67 31 -180 41
-240 21z m148 -118 c84 -23 135 -98 153 -221 l6 -48 -222 0 -222 0 6 38 c33
182 138 270 279 231z"/>
<path d="M7486 1491 c-4 -6 -4 -11 1 -11 4 0 0 -5 -10 -11 -13 -8 -22 -7 -34
3 -14 11 -15 11 -9 -1 7 -10 3 -12 -13 -6 -11 3 -21 2 -21 -3 0 -5 -26 -15
-57 -22 -32 -7 -64 -17 -70 -22 -7 -6 -21 -7 -30 -4 -15 5 -15 4 1 -9 23 -17
18 -19 -19 -5 -14 5 -24 6 -21 1 5 -7 -18 -14 -81 -23 -7 -1 -10 -5 -8 -9 3
-4 -5 -7 -18 -7 -12 0 -48 -9 -81 -21 -32 -11 -63 -18 -69 -14 -6 4 -7 1 -2
-7 6 -10 3 -12 -13 -8 -12 4 -20 2 -16 -3 3 -5 -4 -9 -15 -9 -12 0 -21 -6 -21
-12 0 -10 -2 -10 -8 -1 -6 10 -13 9 -33 -1 -29 -15 -71 -27 -113 -32 -16 -2
-32 -7 -35 -10 -3 -4 4 -4 17 -1 12 3 22 1 22 -4 0 -5 -14 -9 -30 -9 -30 0
-69 -16 -82 -34 -6 -10 -100 -37 -106 -31 -2 2 20 11 48 20 28 9 49 19 47 22
-3 2 -44 -10 -92 -26 -48 -17 -101 -33 -118 -37 -40 -6 -60 -23 -54 -44 5 -19
-66 -55 -90 -46 -26 10 -2 27 30 22 28 -5 29 -5 9 4 -13 5 -38 8 -55 5 -66
-11 -87 -17 -83 -24 3 -4 -9 -8 -26 -9 -16 -1 -37 -9 -45 -18 -12 -11 -26 -14
-52 -9 -23 4 -31 2 -22 -3 11 -8 11 -11 0 -16 -8 -3 2 -4 21 -1 31 5 32 4 11
-5 -14 -6 -32 -7 -40 -3 -19 8 -81 11 -76 3 2 -3 -11 -12 -28 -20 l-32 -14 30
-6 c38 -8 105 -3 119 9 17 14 64 10 70 -5 10 -25 -5 -44 -35 -44 -32 0 -40
-19 -9 -21 11 -1 29 -3 40 -4 11 -1 25 -3 30 -4 6 -1 10 -85 10 -231 0 -223
-1 -230 -20 -230 -11 0 -20 -4 -20 -9 0 -12 -69 -35 -77 -27 -4 3 0 6 8 6 22
0 -12 20 -35 20 -16 0 -17 -2 -5 -21 11 -16 27 -22 69 -24 30 -2 44 0 31 3
-22 7 -22 8 11 24 29 13 35 14 35 2 0 -8 -5 -14 -10 -14 -6 0 -8 -2 -5 -5 8
-9 38 6 32 16 -3 5 0 9 6 9 6 0 8 5 4 11 -4 8 10 10 49 7 32 -2 53 1 49 6 -3
5 2 6 12 3 10 -4 35 2 59 15 41 21 41 22 17 29 -23 6 -23 7 -3 8 12 1 25 -3
28 -9 3 -5 13 -10 22 -10 9 0 13 3 10 7 -6 5 114 52 133 53 3 0 -6 -9 -20 -20
-20 -16 -21 -19 -5 -13 11 4 31 13 45 20 21 11 22 13 6 13 -11 0 -16 3 -12 7
3 4 26 6 49 6 33 -1 37 0 17 6 -24 7 -24 8 8 12 17 3 32 2 32 -2 0 -5 12 -4
27 2 14 5 33 7 40 5 8 -3 12 -2 9 3 -5 8 31 19 77 24 9 1 17 5 17 10 0 5 9 7
20 4 11 -3 20 -1 20 4 0 9 -13 12 -40 10 -11 -1 -11 1 2 9 13 8 25 7 46 -4 17
-9 34 -11 42 -6 10 6 9 9 -6 13 -10 2 -4 3 14 1 18 -1 30 1 27 6 -5 7 89 26
108 22 5 -2 5 3 1 9 -5 9 -2 10 9 6 22 -8 72 13 56 24 -7 4 5 7 27 7 56 0 74
4 74 15 0 5 9 7 20 4 11 -3 20 -1 20 4 0 5 12 9 26 9 30 0 123 28 143 44 7 6
25 12 39 14 14 2 34 8 45 14 15 7 18 7 12 -2 -9 -14 23 1 69 33 16 12 26 16
22 9 -4 -8 2 -10 21 -8 57 8 114 28 120 42 4 10 13 14 26 10 29 -7 78 4 70 17
-4 6 0 8 10 4 18 -7 69 11 63 22 -2 3 16 7 40 7 24 1 51 7 59 14 9 7 18 10 22
7 3 -4 12 -2 20 4 7 7 28 13 46 15 48 6 68 14 61 26 -4 6 1 8 15 3 15 -4 29
-1 42 11 15 13 19 14 19 3 0 -12 2 -12 9 1 12 17 7 26 -21 41 -14 8 -18 8 -14
0 5 -7 1 -9 -8 -5 -9 3 -14 10 -11 14 3 4 -2 11 -11 14 -8 3 -13 2 -10 -2 3
-5 -2 -9 -10 -9 -8 0 -13 5 -11 11 4 11 -34 46 -50 46 -4 0 -19 9 -33 20 -27
21 -45 26 -35 10 3 -6 -1 -7 -9 -4 -9 3 -13 10 -10 15 3 5 -3 12 -13 16 -10 4
-24 13 -32 20 -7 8 -21 11 -31 8 -10 -3 -21 -1 -25 4 -4 7 1 8 12 5 15 -5 16
-4 3 5 -8 6 -24 8 -34 5 -15 -5 -18 -3 -12 11 4 12 0 18 -14 22 -11 3 -20 10
-20 15 0 5 -4 6 -10 3 -5 -3 -18 -1 -27 4 -10 6 -13 11 -8 11 6 0 -3 9 -20 20
-17 11 -38 17 -49 14 -12 -4 -16 -2 -12 5 4 7 -1 11 -13 11 -11 0 -23 4 -26
10 -3 6 1 7 12 4 10 -3 2 4 -17 15 -19 11 -44 18 -55 15 -15 -4 -17 -3 -6 4
11 8 7 14 -20 28 -19 10 -40 17 -47 16 -7 -2 -11 3 -10 9 2 7 -6 15 -17 17
-11 2 -23 9 -26 14 -4 7 -9 6 -13 -1z m41 -27 c-3 -3 -12 -4 -19 -1 -8 3 -5 6
6 6 11 1 17 -2 13 -5z m13 -49 c11 -13 10 -14 -4 -9 -9 3 -16 10 -16 15 0 13
6 11 20 -6z m-255 -5 c-3 -5 -1 -10 6 -10 7 0 10 -3 6 -6 -9 -9 -28 6 -22 17
4 5 8 9 11 9 3 0 2 -4 -1 -10z m52 -6 c-3 -3 -12 -4 -19 -1 -8 3 -5 6 6 6 11
1 17 -2 13 -5z m253 -8 c0 -11 -19 -15 -25 -6 -3 5 1 10 9 10 9 0 16 -2 16 -4z
m-476 -54 c3 -5 -9 -7 -27 -5 -26 3 -28 1 -12 -6 23 -11 6 -14 -20 -5 -13 5
-14 8 -3 15 17 11 55 11 62 1z m-275 -98 c10 -9 -35 -3 -49 6 -11 8 -7 9 15 4
17 -4 32 -8 34 -10z m-72 -20 c-3 -3 -12 -4 -19 -1 -8 3 -5 6 6 6 11 1 17 -2
13 -5z m-148 -67 c8 -11 4 -13 -24 -13 -35 1 -46 10 -22 19 21 9 34 7 46 -6z
m1326 2 c11 -17 -1 -21 -15 -4 -8 9 -8 15 -2 15 6 0 14 -5 17 -11z m-1470 -9
c-3 -5 -14 -10 -23 -9 -14 0 -13 2 3 9 27 11 27 11 20 0z m1580 0 c-3 -5 -12
-10 -18 -10 -7 0 -6 4 3 10 19 12 23 12 15 0z m-1512 -7 c-7 -2 -21 -2 -30 0
-10 3 -4 5 12 5 17 0 24 -2 18 -5z m1577 -17 c0 -3 -4 -8 -10 -11 -5 -3 -10
-1 -10 4 0 6 5 11 10 11 6 0 10 -2 10 -4z m-1720 -22 c0 -9 -5 -14 -12 -12
-18 6 -21 28 -4 28 9 0 16 -7 16 -16z m1725 -10 c-9 -9 -19 -13 -23 -10 -3 4
0 11 8 16 24 15 33 11 15 -6z m-1573 -6 c-9 -9 -15 -9 -24 0 -9 9 -7 12 12 12
19 0 21 -3 12 -12z m1595 -54 c-3 -3 -12 -4 -19 -1 -8 3 -5 6 6 6 11 1 17 -2
13 -5z m-2172 -44 c-3 -5 -14 -10 -23 -10 -15 0 -15 2 -2 10 20 13 33 13 25 0z
m1912 -56 c-3 -3 -12 -4 -19 -1 -8 3 -5 6 6 6 11 1 17 -2 13 -5z m-213 -55 c5
-4 -2 -5 -15 -3 -19 5 -21 4 -9 -5 19 -13 1 -14 -20 -1 -13 9 -13 10 0 10 13
0 13 1 0 11 -11 8 -9 9 10 4 14 -4 29 -11 34 -16z m-339 -79 c3 -6 -1 -7 -9
-4 -18 7 -21 14 -7 14 6 0 13 -4 16 -10z m38 -27 c-7 -2 -21 -2 -30 0 -10 3
-4 5 12 5 17 0 24 -2 18 -5z m-206 -49 c-3 -3 -12 -4 -19 -1 -8 3 -5 6 6 6 11
1 17 -2 13 -5z m-80 -30 c-3 -3 -12 -4 -19 -1 -8 3 -5 6 6 6 11 1 17 -2 13 -5z
m-792 -150 c18 5 25 2 25 -9 0 -18 -11 -19 -45 -3 -15 7 -25 19 -24 32 0 20 1
19 10 -3 7 -18 14 -22 34 -17z m160 26 c-3 -5 -17 -10 -31 -10 -13 0 -24 5
-24 10 0 6 14 10 31 10 17 0 28 -4 24 -10z m78 0 c15 0 18 -3 10 -11 -8 -8
-17 -8 -31 0 -10 6 -22 7 -26 4 -3 -3 -6 -1 -6 6 0 8 6 11 16 7 9 -3 25 -6 37
-6z m74 4 c-3 -3 -12 -4 -19 -1 -8 3 -5 6 6 6 11 1 17 -2 13 -5z m-213 -40 c4
-10 -3 -14 -24 -14 -26 0 -45 11 -36 21 11 11 55 5 60 -7z m-105 -45 c-10 -6
-7 -10 11 -17 l24 -9 -30 -10 c-31 -11 -54 -7 -54 9 0 5 10 6 23 2 l22 -7 -23
19 -23 19 31 1 c20 1 27 -2 19 -7z"/>
<path d="M6314 1111 c6 -9 0 -10 -21 -5 -31 7 -30 3 4 -14 17 -9 22 -9 27 3 3
8 0 17 -6 21 -7 4 -8 3 -4 -5z"/>
<path d="M5805 960 c3 -5 14 -10 23 -10 15 0 15 2 2 10 -20 13 -33 13 -25 0z"/>
<path d="M5770 940 c12 -7 7 -10 -20 -10 -52 0 -85 -11 -68 -21 7 -5 20 -9 28
-9 13 0 13 1 0 10 -12 8 -10 10 11 10 14 0 31 -6 38 -12 11 -11 12 -10 6 1 -5
9 -2 12 11 8 60 -17 69 -18 54 -8 -13 10 -13 11 0 11 13 1 13 2 0 9 -24 13
-78 24 -60 11z"/>
<path d="M5986 911 c-3 -5 1 -11 9 -15 9 -3 15 0 15 9 0 16 -16 20 -24 6z"/>
<path d="M5538 853 c6 -2 18 -2 25 0 6 3 1 5 -13 5 -14 0 -19 -2 -12 -5z"/>
<path d="M5455 840 c3 -5 14 -10 23 -10 15 0 15 2 2 10 -20 13 -33 13 -25 0z"/>
<path d="M5503 834 c4 -4 23 -8 44 -10 27 -2 34 -1 23 6 -17 11 -77 14 -67 4z"/>
<path d="M4848 823 c7 -3 16 -2 19 1 4 3 -2 6 -13 5 -11 0 -14 -3 -6 -6z"/>
<path d="M5280 795 l-25 -15 30 6 c33 7 58 24 35 24 -8 -1 -26 -7 -40 -15z"/>
<path d="M5336 784 c-11 -7 -17 -17 -13 -20 3 -4 14 1 23 10 21 22 15 28 -10
10z"/>
<path d="M5240 760 l-25 -8 27 -1 c15 -1 30 4 33 9 7 11 0 11 -35 0z"/>
<path d="M5010 756 c0 -2 9 -6 20 -9 11 -3 18 -1 14 4 -5 9 -34 13 -34 5z"/>
<path d="M5150 750 c-8 -5 -10 -10 -5 -10 6 0 17 5 25 10 8 5 11 10 5 10 -5 0
-17 -5 -25 -10z"/>
<path d="M4978 743 c7 -3 16 -2 19 1 4 3 -2 6 -13 5 -11 0 -14 -3 -6 -6z"/>
<path d="M5288 743 c7 -3 16 -2 19 1 4 3 -2 6 -13 5 -11 0 -14 -3 -6 -6z"/>
<path d="M6430 490 c-13 -8 -13 -10 2 -10 9 0 20 5 23 10 8 13 -5 13 -25 0z"/>
<path d="M5773 413 c9 -2 23 -2 30 0 6 3 -1 5 -18 5 -16 0 -22 -2 -12 -5z"/>
<path d="M5920 350 c0 -5 7 -7 15 -4 8 4 15 8 15 10 0 2 -7 4 -15 4 -8 0 -15
-4 -15 -10z"/>
<path d="M5874 338 c-3 -4 -17 -5 -32 -2 -15 4 -24 3 -20 -1 12 -13 96 -13 91
0 -5 14 -31 16 -39 3z"/>
<path d="M5718 333 c7 -3 16 -2 19 1 4 3 -2 6 -13 5 -11 0 -14 -3 -6 -6z"/>
<path d="M5730 314 l-35 -13 35 -1 c26 0 31 -3 20 -10 -9 -6 -10 -10 -3 -10 6
0 14 4 17 9 3 5 23 12 43 16 32 6 35 9 18 15 -28 12 -54 10 -95 -6z m73 -1
c-7 -2 -21 -2 -30 0 -10 3 -4 5 12 5 17 0 24 -2 18 -5z"/>
<path d="M5514 249 c-4 -7 -21 -9 -43 -5 -25 4 -31 2 -21 -4 8 -5 33 -9 55 -8
22 1 34 3 27 6 -7 2 -10 8 -6 13 3 5 3 9 0 9 -3 0 -8 -5 -12 -11z"/>
<path d="M5625 250 c-16 -7 -17 -9 -3 -9 9 -1 20 4 23 9 7 11 7 11 -20 0z"/>
<path d="M5450 210 c8 -5 24 -10 34 -10 26 0 18 6 -19 14 -22 5 -26 4 -15 -4z"/>
<path d="M5044 166 c11 -9 24 -16 30 -16 12 0 7 5 -24 19 -24 11 -24 11 -6 -3z"/>
<path d="M5070 176 c0 -2 7 -7 16 -10 8 -3 12 -2 9 4 -6 10 -25 14 -25 6z"/>
<path d="M5228 173 c7 -3 16 -2 19 1 4 3 -2 6 -13 5 -11 0 -14 -3 -6 -6z"/>
<path d="M5318 173 c7 -3 16 -2 19 1 4 3 -2 6 -13 5 -11 0 -14 -3 -6 -6z"/>
<path d="M5200 160 c0 -6 7 -10 15 -10 8 0 15 2 15 4 0 2 -7 6 -15 10 -8 3
-15 1 -15 -4z"/>
<path d="M5268 163 c6 -2 18 -2 25 0 6 3 1 5 -13 5 -14 0 -19 -2 -12 -5z"/>
<path d="M5105 130 c3 -5 8 -10 11 -10 2 0 4 5 4 10 0 6 -5 10 -11 10 -5 0 -7
-4 -4 -10z"/>
<path d="M5090 106 c0 -2 7 -7 16 -10 8 -3 12 -2 9 4 -6 10 -25 14 -25 6z"/>
</g>
</svg>
